<svg xmlns="http://www.w3.org/2000/svg" viewBox="0 0 1024 1024" role="img" aria-labelledby="title desc">
  <title id="title">CodexUsage icon</title>
  <desc id="desc">A compact Codex usage meter with a terminal prompt and progress bars.</desc>
  <defs>
    <linearGradient id="bg" x1="176" y1="96" x2="848" y2="928" gradientUnits="userSpaceOnUse">
      <stop offset="0" stop-color="#16202a"/>
      <stop offset="0.56" stop-color="#111820"/>
      <stop offset="1" stop-color="#0b1117"/>
    </linearGradient>
    <linearGradient id="fill" x1="264" y1="468" x2="808" y2="468" gradientUnits="userSpaceOnUse">
      <stop offset="0" stop-color="#38d47b"/>
      <stop offset="0.58" stop-color="#2ec7c0"/>
      <stop offset="1" stop-color="#5a8cff"/>
    </linearGradient>
    <linearGradient id="amber" x1="650" y1="614" x2="800" y2="614" gradientUnits="userSpaceOnUse">
      <stop offset="0" stop-color="#ffcf5a"/>
      <stop offset="1" stop-color="#ff9f43"/>
    </linearGradient>
    <filter id="shadow" x="96" y="72" width="832" height="880" filterUnits="userSpaceOnUse" color-interpolation-filters="sRGB">
      <feDropShadow dx="0" dy="28" stdDeviation="34" flood-color="#000000" flood-opacity="0.32"/>
    </filter>
  </defs>
  <rect width="1024" height="1024" fill="none"/>
  <g filter="url(#shadow)">
    <rect x="128" y="96" width="768" height="832" rx="164" fill="url(#bg)"/>
    <rect x="128" y="96" width="768" height="832" rx="164" fill="none" stroke="#ffffff" stroke-opacity="0.12" stroke-width="18"/>
  </g>
  <circle cx="244" cy="236" r="23" fill="#ff6b6b"/>
  <circle cx="318" cy="236" r="23" fill="#ffcf5a"/>
  <circle cx="392" cy="236" r="23" fill="#38d47b"/>
  <path d="M278 350L410 444L278 538" fill="none" stroke="#eaf2f8" stroke-width="54" stroke-linecap="round" stroke-linejoin="round"/>
  <path d="M468 532H728" fill="none" stroke="#eaf2f8" stroke-width="54" stroke-linecap="round"/>
  <rect x="224" y="650" width="584" height="78" rx="39" fill="#eaf2f8" fill-opacity="0.12"/>
  <rect x="224" y="650" width="416" height="78" rx="39" fill="url(#fill)"/>
  <path d="M650 623V755" stroke="#ffffff" stroke-opacity="0.78" stroke-width="18" stroke-linecap="round"/>
  <rect x="224" y="792" width="584" height="42" rx="21" fill="#eaf2f8" fill-opacity="0.10"/>
  <rect x="224" y="792" width="198" height="42" rx="21" fill="url(#amber)"/>
  <path d="M742 364C790 412 818 478 818 550C818 612 797 669 762 714" fill="none" stroke="#5a8cff" stroke-opacity="0.42" stroke-width="30" stroke-linecap="round"/>
</svg>
